{"title":"Earth.to.Echo.2014.720p.WEB-DL.H264.AAC.Mp4.Raven","uid":11170391,"size":776558425,"categoryP":"video","categoryS":"movies","magnet":"?xt=urn:btih:cd0ed6629e1e88dd1698abf25511606ebf141d03&amp;dn=Earth.to.Echo.2014.720p.WEB-DL.H264.AAC.Mp4.Raven&amp;tr=udp%3A%2F%2Ftracker.openbittorrent.com%3A80&amp;tr=udp%3A%2F%2Fopen.demonii.com%3A1337&amp;tr=udp%3A%2F%2Ftracker.coppersurfer.tk%3A6969&amp;tr=udp%3A%2F%2Fexodus.desync.com%3A6969","seeders":1,"leechers":0,"uploader":"Raven1969","files":-1,"time":1412691021,"description":"Earth.to.Echo.2014.720p.WEB-DL.H264.AAC.Mp4.Raven.\n\n\n\n\nEnglish subs included.\n\n\n\n\nRuntime:\n91 min\n\n\n\nScreen images:\n\n\n &lt;a href=&quot;\nhttp://i.imgur.com/1PRE5Fd.png&quot; rel=&quot;nofollow&quot; target=&quot;_NEW&quot;&gt;\nhttp://i.imgur.com/1PRE5Fd.png&lt;/a&gt;\n\n\n &lt;a href=&quot;\nhttp://i.imgur.com/XOLOrN9.png&quot; rel=&quot;nofollow&quot; target=&quot;_NEW&quot;&gt;\nhttp://i.imgur.com/XOLOrN9.png&lt;/a&gt;\n\n\n &lt;a href=&quot;\nhttp://i.imgur.com/5MaRMKU.png&quot; rel=&quot;nofollow&quot; target=&quot;_NEW&quot;&gt;\nhttp://i.imgur.com/5MaRMKU.png&lt;/a&gt;\n\n\n &lt;a href=&quot;\nhttp://i.imgur.com/9wCmtQG.png&quot; rel=&quot;nofollow&quot; target=&quot;_NEW&quot;&gt;\nhttp://i.imgur.com/9wCmtQG.png&lt;/a&gt;\n\n\n\nIMDB:\n\n\n\n &lt;a href=&quot;\nhttp://www.imdb.com/title/tt2183034&quot; rel=&quot;nofollow&quot; target=&quot;_NEW&quot;&gt;\nhttp://www.imdb.com/title/tt2183034&lt;/a&gt;\n\n\n\n\nIMDB Rating:  5.8\n\n\n\n\nStoryline:\n\nAfter receiving a bizarre series of encrypted messages, a group of kids embark on an adventure with an alien who needs their help.\n\n\n\n\nGeneral\nFormat                                   : MPEG-4\nFormat profile                           : Base Media\nCodec ID                                 : isom\nFile size                                : 735 MiB\nDuration                                 : 1h 31mn\nOverall bit rate mode                    : Variable\nOverall bit rate                         : 1 127 Kbps\nEncoded date                             : UTC 2014-10-07 11:12:37\nTagged date                              : UTC 2014-10-07 11:12:37\nWriting application                      : My MP4Box GUI 0.6.0.6 &lt;http://my-mp4box-gui.zymichost.com&gt;\n\nVideo\nID                                       : 1\nFormat                                   : AVC\nFormat/Info                              : Advanced Video Codec\nFormat profile                           : &lt;a class=&quot;__cf_email__&quot; href=&quot;/cdn-cgi/l/email-protection&quot; data-cfemail=&quot;d098b9b7b8909ce4fee0&quot;&gt;[email&amp;#160;protected]&lt;/a&gt;&lt;script cf-hash='f9e31' type=&quot;text/javascript&quot;&gt;\n/* &lt;![CDATA[ */!function(){try{var t=&quot;currentScript&quot;in document?document.currentScript:function(){for(var t=document.getElementsByTagName(&quot;script&quot;),e=t.length;e--;)if(t[e].getAttribute(&quot;cf-hash&quot;))return t[e]}();if(t&amp;&amp;t.previousSibling){var e,r,n,i,c=t.previousSibling,a=c.getAttribute(&quot;data-cfemail&quot;);if(a){for(e=&quot;&quot;,r=parseInt(a.substr(0,2),16),n=2;a.length-n;n+=2)i=parseInt(a.substr(n,2),16)^r,e+=String.fromCharCode(i);e=document.createTextNode(e),c.parentNode.replaceChild(e,c)}}}catch(u){}}();/* ]]&gt; */&lt;/script&gt;\nFormat settings, CABAC                   : Yes\nFormat settings, ReFrames                : 8 frames\nCodec ID                                 : avc1\nCodec ID/Info                            : Advanced Video Coding\nDuration                                 : 1h 31mn\nBit rate                                 : 966 Kbps\nMaximum bit rate                         : 5 231 Kbps\nWidth                                    : 1 280 pixels\nHeight                                   : 718 pixels\nDisplay aspect ratio                     : 16:9\nFrame rate mode                          : Constant\nFrame rate                               : 23.976 fps\nColor space                              : YUV\nChroma subsampling                       : 4:2:0\nBit depth                                : 8 bits\nScan type                                : Progressive\nBits/(Pixel*Frame)                       : 0.044\nStream size                              : 630 MiB (86%)\nTitle                                    : Earth.to.Echo.2014.720p.WEB-DL.H264.AAC.Mp4.Raven.mp4\nWriting library                          : x264 core 142 \nLanguage                                 : English\nEncoded date                             : UTC 2014-10-07 11:05:39\nTagged date                              : UTC 2014-10-07 11:15:09\n\nAudio\nID                                       : 2\nFormat                                   : AAC\nFormat/Info                              : Advanced Audio Codec\nFormat profile                           : LC\nCodec ID                                 : 40\nDuration                                 : 1h 31mn\nBit rate mode                            : Variable\nBit rate                                 : 157 Kbps\nMaximum bit rate                         : 163 Kbps\nChannel(s)                               : 2 channels\nChannel positions                        : Front: L R\nSampling rate                            : 48.0 KHz\nCompression mode                         : Lossy\nStream size                              : 103 MiB (14%)\nTitle                                    : Audio AAC LC 160kb.aac\nEncoded date                             : UTC 2014-10-07 11:14:00\nTagged date                              : UTC 2014-10-07 11:15:09\n\n\n\nPLEASE  SEED FOR AS LONG AS POSSIBLE TO KEEP THE TORRENT ALIVE :-)","torrent":{"xt":"urn:btih:cd0ed6629e1e88dd1698abf25511606ebf141d03","amp;dn":"Earth.to.Echo.2014.720p.WEB-DL.H264.AAC.Mp4.Raven","amp;tr":["udp%3A%2F%2Ftracker.openbittorrent.com%3A80","udp%3A%2F%2Fopen.demonii.com%3A1337","udp%3A%2F%2Ftracker.coppersurfer.tk%3A6969","udp%3A%2F%2Fexodus.desync.com%3A6969"],"infoHash":"cd0ed6629e1e88dd1698abf25511606ebf141d03","infoHashBuffer":{"type":"Buffer","data":[205,14,214,98,158,30,136,221,22,152,171,242,85,17,96,110,191,20,29,3]},"announce":[],"urlList":[]}}